<?xml version="1.0" encoding="UTF-8"?>
<svg version="1.1" xmlns="http://www.w3.org/2000/svg" width="500" height="500">
<path d="M0 0 C165 0 330 0 500 0 C500 165 500 330 500 500 C335 500 170 500 0 500 C0 335 0 170 0 0 Z " fill="#FEFEFE" transform="translate(0,0)"/>
<path d="M0 0 C3.74619867 1.96915571 6.06419505 4.3787282 7.640625 8.2734375 C7.828125 11.5859375 7.828125 11.5859375 7.640625 14.2734375 C8.919375 13.9640625 10.198125 13.6546875 11.515625 13.3359375 C12.23492187 13.16191406 12.95421875 12.98789063 13.6953125 12.80859375 C15.6991907 12.32496758 15.6991907 12.32496758 17.640625 11.2734375 C19.51442105 11.20309981 21.39063602 11.1891353 23.265625 11.2109375 C24.76996094 11.22447266 24.76996094 11.22447266 26.3046875 11.23828125 C27.07554687 11.24988281 27.84640625 11.26148438 28.640625 11.2734375 C27.38261222 9.70696872 27.38261222 9.70696872 25.640625 8.2734375 C21.30582287 7.99821197 17.81778425 8.11467296 13.640625 9.2734375 C13.94860826 7.79332379 14.262143 6.31436425 14.578125 4.8359375 C14.75214844 4.01222656 14.92617187 3.18851563 15.10546875 2.33984375 C15.640625 0.2734375 15.640625 0.2734375 16.640625 -0.7265625 C19.07275272 -0.88079499 21.45698067 -0.95822996 23.890625 -0.9765625 C24.55964844 -0.9971875 25.22867188 -1.0178125 25.91796875 -1.0390625 C30.37870908 -1.07411743 33.07614273 -0.40642873 36.640625 2.2734375 C38.640625 4.2734375 38.640625 4.2734375 38.86767578 6.70361328 C38.85720215 7.6986084 38.84672852 8.69360352 38.8359375 9.71875 C38.82949219 10.79511719 38.82304687 11.87148437 38.81640625 12.98046875 C38.79126953 14.67236328 38.79126953 14.67236328 38.765625 16.3984375 C38.75660156 17.53410156 38.74757813 18.66976562 38.73828125 19.83984375 C38.71465598 22.65125049 38.68171513 25.46224048 38.640625 28.2734375 C34.63605091 29.3836658 30.77231502 29.45719503 26.640625 29.4609375 C25.9290625 29.47318359 25.2175 29.48542969 24.484375 29.49804688 C20.706138 29.5086203 17.84368842 29.38378918 14.640625 27.2734375 C14.640625 29.9134375 14.640625 32.5534375 14.640625 35.2734375 C6.060625 35.2734375 -2.519375 35.2734375 -11.359375 35.2734375 C-11.359375 36.5934375 -11.359375 37.9134375 -11.359375 39.2734375 C-14.659375 39.2734375 -17.959375 39.2734375 -21.359375 39.2734375 C-21.359375 41.5834375 -21.359375 43.8934375 -21.359375 46.2734375 C-10.469375 46.2734375 0.420625 46.2734375 11.640625 46.2734375 C11.640625 52.8734375 11.640625 59.4734375 11.640625 66.2734375 C0.750625 66.2734375 -10.139375 66.2734375 -21.359375 66.2734375 C-21.359375 77.1634375 -21.359375 88.0534375 -21.359375 99.2734375 C-28.949375 99.2734375 -36.539375 99.2734375 -44.359375 99.2734375 C-44.359375 71.2234375 -44.359375 43.1734375 -44.359375 14.2734375 C-37.099375 14.2734375 -29.839375 14.2734375 -22.359375 14.2734375 C-22.359375 10.3134375 -22.359375 6.3534375 -22.359375 2.2734375 C-15.5032309 -1.66075782 -7.62585439 -2.34835913 0 0 Z " fill="#68DAE8" transform="translate(164.359375,202.7265625)"/>
<path d="M0 0 C0.66902344 -0.020625 1.33804688 -0.04125 2.02734375 -0.0625 C6.48808408 -0.09755493 9.18551773 0.57013377 12.75 3.25 C14.75 5.25 14.75 5.25 14.9453125 7.6328125 C14.92210937 8.53773438 14.89890625 9.44265625 14.875 10.375 C14.85695313 11.28507813 14.83890625 12.19515625 14.8203125 13.1328125 C14.79710937 13.83148438 14.77390625 14.53015625 14.75 15.25 C16.4 15.25 18.05 15.25 19.75 15.25 C19.75 10.96 19.75 6.67 19.75 2.25 C26.80482076 -0.43755076 36.0306068 -1.80837548 43.10546875 1.27734375 C47.81196348 4.90004012 49.43297417 9.60560359 50.75 15.25 C52.95708821 13.35299708 52.95708821 13.35299708 53.625 10.4375 C55.29004498 5.71987257 57.61134642 3.00910239 61.75 0.25 C64.4921875 -0.05078125 64.4921875 -0.05078125 67.625 -0.0625 C69.16800781 -0.08763672 69.16800781 -0.08763672 70.7421875 -0.11328125 C75.20356711 0.4255607 77.78644419 2.33997507 81 5.375 C83.4340677 9.37382551 83.47220128 12.59687139 83.75 17.25 C79.13 17.25 74.51 17.25 69.75 17.25 C69.75 18.57 69.75 19.89 69.75 21.25 C72.72 20.59 75.69 19.93 78.75 19.25 C81.82692308 23.68076923 81.82692308 23.68076923 81.4375 26.5625 C81.210625 27.119375 80.98375 27.67625 80.75 28.25 C75.01190702 30.17831152 69.72528618 30.70940491 63.6875 30.8125 C62.81544922 30.86212891 61.94339844 30.91175781 61.04492188 30.96289062 C54.74536546 31.06303497 54.74536546 31.06303497 51.79345703 28.65185547 C50.30034338 26.91434245 48.98021739 25.18061493 47.75 23.25 C47.028125 24.054375 46.30625 24.85875 45.5625 25.6875 C42.75 28.25 42.75 28.25 37.75 29.25 C37.75 52.68 37.75 76.11 37.75 100.25 C30.16 100.25 22.57 100.25 14.75 100.25 C14.75 76.82 14.75 53.39 14.75 29.25 C13.43 29.58 12.11 29.91 10.75 30.25 C8.1089934 30.4210206 5.51701629 30.52614198 2.875 30.5625 C1.83279297 30.60600586 1.83279297 30.60600586 0.76953125 30.65039062 C-4.4073124 30.71376065 -7.28136045 29.52079009 -11.25 26.25 C-12.79586876 23.15826248 -12.54359521 20.65570448 -12.25 17.25 C-10.38291495 14.88502561 -8.92938569 13.58969285 -6.25 12.25 C-4.37620395 12.17966231 -2.49998898 12.1656978 -0.625 12.1875 C0.87933594 12.20103516 0.87933594 12.20103516 2.4140625 12.21484375 C3.18492187 12.22644531 3.95578125 12.23804688 4.75 12.25 C3.49198722 10.68353122 3.49198722 10.68353122 1.75 9.25 C-2.58480213 8.97477447 -6.07284075 9.09123546 -10.25 10.25 C-9.94201674 8.76988629 -9.628482 7.29092675 -9.3125 5.8125 C-9.13847656 4.98878906 -8.96445313 4.16507813 -8.78515625 3.31640625 C-7.62742264 -1.15396661 -3.91648887 0.02950274 0 0 Z " fill="#67D9E7" transform="translate(247.25,201.75)"/>
<path d="M0 0 C7.03341895 5.11285437 10.92135211 12.68540845 13 21 C13 24.96 13 28.92 13 33 C-0.86 33 -14.72 33 -29 33 C-25.78172668 38.58848253 -25.78172668 38.58848253 -21 41 C-14.35173878 42.00307099 -9.12289716 40.63483219 -3.12890625 37.77734375 C-1 37 -1 37 2 38 C3.52008491 40.27286119 4.8711532 42.48986529 6.1875 44.875 C6.73954102 45.83212891 6.73954102 45.83212891 7.30273438 46.80859375 C10 51.60262059 10 51.60262059 10 55 C8.14801206 55.79675015 6.2932889 56.58714361 4.4375 57.375 C3.40496094 57.81585938 2.37242187 58.25671875 1.30859375 58.7109375 C-10.03254477 63.1295629 -23.15854195 64.26700691 -34.5703125 59.32421875 C-41.93328406 55.31128087 -47.29665091 50.58517283 -51 43 C-51.36222656 42.29230469 -51.72445312 41.58460938 -52.09765625 40.85546875 C-54.93578635 31.87419991 -54.46292771 19.70145301 -50.5625 11.1875 C-46.01315923 3.63367657 -39.19346689 -1.37860049 -30.92578125 -4.3359375 C-20.12247214 -6.78795692 -9.56980667 -5.76529637 0 0 Z " fill="#69DAE8" transform="translate(240,242)"/>
<path d="M0 0 C17.49 0 34.98 0 53 0 C53 6.27 53 12.54 53 19 C46.0888793 25.7715021 46.0888793 25.7715021 42.98046875 27.5546875 C38.9476312 29.98210554 35.31343928 32.77318938 31.625 35.6875 C28.840625 37.8221875 28.840625 37.8221875 26 40 C39.86 40.495 39.86 40.495 54 41 C54 47.93 54 54.86 54 62 C35.52 62 17.04 62 -2 62 C-2 43 -2 43 4.3125 36.375 C6.38647461 34.73681641 6.38647461 34.73681641 8.15234375 33.6015625 C11.76977604 31.18632264 15.04745147 28.5526028 18.375 25.75 C19.90125 24.5125 21.4275 23.275 23 22 C11.615 21.505 11.615 21.505 0 21 C0 14.07 0 7.14 0 0 Z " fill="#69DAE8" transform="translate(328,240)"/>
<path d="M0 0 C3.74619867 1.96915571 6.06419505 4.3787282 7.640625 8.2734375 C7.828125 11.5859375 7.828125 11.5859375 7.640625 14.2734375 C8.919375 13.9640625 10.198125 13.6546875 11.515625 13.3359375 C12.23492187 13.16191406 12.95421875 12.98789063 13.6953125 12.80859375 C15.6991907 12.32496758 15.6991907 12.32496758 17.640625 11.2734375 C19.51442105 11.20309981 21.39063602 11.1891353 23.265625 11.2109375 C24.76996094 11.22447266 24.76996094 11.22447266 26.3046875 11.23828125 C27.07554687 11.24988281 27.84640625 11.26148438 28.640625 11.2734375 C27.38261222 9.70696872 27.38261222 9.70696872 25.640625 8.2734375 C21.30582287 7.99821197 17.81778425 8.11467296 13.640625 9.2734375 C13.94860826 7.79332379 14.262143 6.31436425 14.578125 4.8359375 C14.75214844 4.01222656 14.92617187 3.18851563 15.10546875 2.33984375 C15.640625 0.2734375 15.640625 0.2734375 16.640625 -0.7265625 C19.07275272 -0.88079499 21.45698067 -0.95822996 23.890625 -0.9765625 C24.55964844 -0.9971875 25.22867188 -1.0178125 25.91796875 -1.0390625 C30.37870908 -1.07411743 33.07614273 -0.40642873 36.640625 2.2734375 C38.640625 4.2734375 38.640625 4.2734375 38.86767578 6.70361328 C38.85720215 7.6986084 38.84672852 8.69360352 38.8359375 9.71875 C38.82949219 10.79511719 38.82304687 11.87148437 38.81640625 12.98046875 C38.79964844 14.10839844 38.78289062 15.23632812 38.765625 16.3984375 C38.75660156 17.53410156 38.74757812 18.66976562 38.73828125 19.83984375 C38.71465598 22.65125049 38.68171513 25.46224048 38.640625 28.2734375 C34.63605091 29.3836658 30.77231502 29.45719503 26.640625 29.4609375 C25.9290625 29.47318359 25.2175 29.48542969 24.484375 29.49804688 C20.706138 29.5086203 17.84368842 29.38378918 14.640625 27.2734375 C14.640625 29.9134375 14.640625 32.5534375 14.640625 35.2734375 C6.060625 35.2734375 -2.519375 35.2734375 -11.359375 35.2734375 C-11.359375 36.5934375 -11.359375 37.9134375 -11.359375 39.2734375 C-14.989375 39.2734375 -18.619375 39.2734375 -22.359375 39.2734375 C-22.359375 27.0634375 -22.359375 14.8534375 -22.359375 2.2734375 C-15.12285839 -1.3448208 -7.92419214 -2.44023136 0 0 Z " fill="#C992D2" transform="translate(164.359375,202.7265625)"/>
<path d="M0 0 C4.70649473 3.62269637 6.32750542 8.32825984 7.64453125 13.97265625 C9.85161946 12.07565333 9.85161946 12.07565333 10.51953125 9.16015625 C12.18457623 4.44252882 14.50587767 1.73175864 18.64453125 -1.02734375 C21.38671875 -1.328125 21.38671875 -1.328125 24.51953125 -1.33984375 C26.06253906 -1.36498047 26.06253906 -1.36498047 27.63671875 -1.390625 C32.09809836 -0.85178305 34.68097544 1.06263132 37.89453125 4.09765625 C40.32859895 8.09648176 40.36673253 11.31952764 40.64453125 15.97265625 C36.02453125 15.97265625 31.40453125 15.97265625 26.64453125 15.97265625 C26.64453125 17.29265625 26.64453125 18.61265625 26.64453125 19.97265625 C29.61453125 19.31265625 32.58453125 18.65265625 35.64453125 17.97265625 C38.72145433 22.40342548 38.72145433 22.40342548 38.33203125 25.28515625 C38.10515625 25.84203125 37.87828125 26.39890625 37.64453125 26.97265625 C31.90643827 28.90096777 26.61981743 29.43206116 20.58203125 29.53515625 C19.70998047 29.58478516 18.83792969 29.63441406 17.93945312 29.68554688 C11.63989671 29.78569122 11.63989671 29.78569122 8.68798828 27.37451172 C7.19487463 25.6369987 5.87474864 23.90327118 4.64453125 21.97265625 C3.92265625 22.75640625 3.20078125 23.54015625 2.45703125 24.34765625 C-1.46993614 28.01282581 -3.80789948 28.92191627 -9.16796875 29.09765625 C-10.74578125 29.03578125 -10.74578125 29.03578125 -12.35546875 28.97265625 C-12.35546875 32.27265625 -12.35546875 35.57265625 -12.35546875 38.97265625 C-15.98546875 38.97265625 -19.61546875 38.97265625 -23.35546875 38.97265625 C-23.35546875 26.43265625 -23.35546875 13.89265625 -23.35546875 0.97265625 C-15.93241047 -1.14821754 -7.44338226 -3.2464503 0 0 Z " fill="#C990D2" transform="translate(290.35546875,203.02734375)"/>
<path d="M0 0 C10.92704169 2.65053437 19.99994785 8.32204917 26.49609375 17.60546875 C27.71891905 21.27394465 27.88243403 23.74206594 27.49609375 27.60546875 C25.37388132 31.82442707 22.98869112 34.90335535 18.49609375 36.60546875 C16.0234375 36.8359375 16.0234375 36.8359375 13.43359375 36.79296875 C12.57636719 36.78652344 11.71914063 36.78007812 10.8359375 36.7734375 C8.49609375 36.60546875 8.49609375 36.60546875 5.49609375 35.60546875 C5.26921875 36.36859375 5.04234375 37.13171875 4.80859375 37.91796875 C3.13667836 41.34141455 1.99671054 42.11584458 -1.50390625 43.60546875 C-6.2553114 44.82400254 -9.38713088 45.14317541 -13.87890625 42.98046875 C-18.65810827 38.65642883 -20.17474016 34.83323845 -20.62890625 28.484375 C-20.22121932 19.09483549 -16.21463619 10.88078223 -10.50390625 3.60546875 C-9.90578125 2.73921875 -9.30765625 1.87296875 -8.69140625 0.98046875 C-5.62598766 -0.94636579 -3.50619021 -0.58148639 0 0 Z " fill="#B876BC" transform="translate(257.50390625,142.39453125)"/>
<path d="M0 0 C7.59 0 15.18 0 23 0 C23 20.46 23 40.92 23 62 C15.41 62 7.82 62 0 62 C0 41.54 0 21.08 0 0 Z " fill="#68DAE8" transform="translate(295,240)"/>
<path d="M0 0 C1.54300781 -0.02513672 1.54300781 -0.02513672 3.1171875 -0.05078125 C7.57856711 0.4880607 10.16144419 2.40247507 13.375 5.4375 C15.8090677 9.43632551 15.84720128 12.65937139 16.125 17.3125 C11.505 17.3125 6.885 17.3125 2.125 17.3125 C2.125 18.6325 2.125 19.9525 2.125 21.3125 C5.095 20.6525 8.065 19.9925 11.125 19.3125 C14.20192308 23.74326923 14.20192308 23.74326923 13.8125 26.625 C13.585625 27.181875 13.35875 27.73875 13.125 28.3125 C6.54217508 30.55346167 0.48904612 31.5184788 -6.1875 29.125 C-9.70270834 26.7542781 -11.98140381 24.09969238 -13.875 20.3125 C-14.91182946 10.41818455 -14.91182946 10.41818455 -12.86328125 6.2578125 C-9.04558123 1.64905752 -5.86314398 0.02193196 0 0 Z " fill="#CB91D2" transform="translate(314.875,201.6875)"/>
<path d="M0 0 C0.66902344 -0.020625 1.33804688 -0.04125 2.02734375 -0.0625 C6.48808408 -0.09755493 9.18551773 0.57013377 12.75 3.25 C14.75 5.25 14.75 5.25 14.97705078 7.68017578 C14.96657715 8.6751709 14.95610352 9.67016602 14.9453125 10.6953125 C14.93886719 11.77167969 14.93242187 12.84804687 14.92578125 13.95703125 C14.90902344 15.08496094 14.89226562 16.21289062 14.875 17.375 C14.86597656 18.51066406 14.85695313 19.64632812 14.84765625 20.81640625 C14.82403098 23.62781299 14.79109013 26.43880298 14.75 29.25 C10.7925293 30.3346199 6.95894816 30.50629888 2.875 30.5625 C1.83279297 30.60600586 1.83279297 30.60600586 0.76953125 30.65039062 C-4.4073124 30.71376065 -7.28136045 29.52079009 -11.25 26.25 C-12.79586876 23.15826248 -12.54359521 20.65570448 -12.25 17.25 C-10.38291495 14.88502561 -8.92938569 13.58969285 -6.25 12.25 C-4.37620395 12.17966231 -2.49998898 12.1656978 -0.625 12.1875 C0.87933594 12.20103516 0.87933594 12.20103516 2.4140625 12.21484375 C3.18492187 12.22644531 3.95578125 12.23804688 4.75 12.25 C3.49198722 10.68353122 3.49198722 10.68353122 1.75 9.25 C-2.58480213 8.97477447 -6.07284075 9.09123546 -10.25 10.25 C-9.94201674 8.76988629 -9.628482 7.29092675 -9.3125 5.8125 C-9.13847656 4.98878906 -8.96445313 4.16507813 -8.78515625 3.31640625 C-7.62742264 -1.15396661 -3.91648887 0.02950274 0 0 Z " fill="#CC91D2" transform="translate(247.25,201.75)"/>
<path d="M0 0 C0.66902344 -0.020625 1.33804688 -0.04125 2.02734375 -0.0625 C6.48808408 -0.09755493 9.18551773 0.57013377 12.75 3.25 C14.75 5.25 14.75 5.25 14.97705078 7.68017578 C14.96657715 8.6751709 14.95610352 9.67016602 14.9453125 10.6953125 C14.93886719 11.77167969 14.93242187 12.84804687 14.92578125 13.95703125 C14.90902344 15.08496094 14.89226562 16.21289062 14.875 17.375 C14.86597656 18.51066406 14.85695312 19.64632812 14.84765625 20.81640625 C14.82403098 23.62781299 14.79109013 26.43880298 14.75 29.25 C10.7925293 30.3346199 6.95894816 30.50629888 2.875 30.5625 C1.83279297 30.60600586 1.83279297 30.60600586 0.76953125 30.65039062 C-4.4073124 30.71376065 -7.28136045 29.52079009 -11.25 26.25 C-12.79586876 23.15826248 -12.54359521 20.65570448 -12.25 17.25 C-10.38291495 14.88502561 -8.92938569 13.58969285 -6.25 12.25 C-4.37620395 12.17966231 -2.49998898 12.1656978 -0.625 12.1875 C0.87933594 12.20103516 0.87933594 12.20103516 2.4140625 12.21484375 C3.18492187 12.22644531 3.95578125 12.23804688 4.75 12.25 C3.49198722 10.68353122 3.49198722 10.68353122 1.75 9.25 C-2.58480213 8.97477447 -6.07284075 9.09123546 -10.25 10.25 C-9.94201674 8.76988629 -9.628482 7.29092675 -9.3125 5.8125 C-9.13847656 4.98878906 -8.96445313 4.16507813 -8.78515625 3.31640625 C-7.62742264 -1.15396661 -3.91648887 0.02950274 0 0 Z " fill="#CC91D2" transform="translate(188.25,201.75)"/>
<path d="M0 0 C3.3 0 6.6 0 10 0 C10 2.64 10 5.28 10 8 C13.3 8 16.6 8 20 8 C20 10.97 20 13.94 20 17 C16.7 17 13.4 17 10 17 C10.33 19.64 10.66 22.28 11 25 C13.97 25.33 16.94 25.66 20 26 C20 29.3 20 32.6 20 36 C17.60225255 36.13572155 15.21224755 36.23436868 12.8125 36.3125 C11.80219727 36.3753418 11.80219727 36.3753418 10.77148438 36.43945312 C7.00476463 36.53132434 5.14540898 36.10102098 2.03125 33.9375 C-0.5250729 30.24066381 -0.52040708 28.13671152 -0.3125 23.6875 C-0.26738281 22.43324219 -0.22226562 21.17898437 -0.17578125 19.88671875 C-0.11777344 18.93410156 -0.05976563 17.98148438 0 17 C-1.32 17 -2.64 17 -4 17 C-4 14.03 -4 11.06 -4 8 C-2.68 8 -1.36 8 0 8 C0 5.36 0 2.72 0 0 Z " fill="#CB8FD1" transform="translate(338,195)"/>
<path d="M0 0 C3.3 0 6.6 0 10 0 C10 2.64 10 5.28 10 8 C13.3 8 16.6 8 20 8 C20 10.97 20 13.94 20 17 C16.7 17 13.4 17 10 17 C10.33 19.64 10.66 22.28 11 25 C13.97 25.33 16.94 25.66 20 26 C20 29.3 20 32.6 20 36 C17.60225255 36.13572155 15.21224755 36.23436868 12.8125 36.3125 C11.80219727 36.3753418 11.80219727 36.3753418 10.77148438 36.43945312 C7.00476463 36.53132434 5.14540898 36.10102098 2.03125 33.9375 C-0.5250729 30.24066381 -0.52040708 28.13671152 -0.3125 23.6875 C-0.26738281 22.43324219 -0.22226563 21.17898437 -0.17578125 19.88671875 C-0.11777344 18.93410156 -0.05976563 17.98148438 0 17 C-1.32 17 -2.64 17 -4 17 C-4 14.03 -4 11.06 -4 8 C-2.68 8 -1.36 8 0 8 C0 5.36 0 2.72 0 0 Z " fill="#CB8FD1" transform="translate(211,195)"/>
<path d="M0 0 C4.12765059 1.45934267 7.15954125 3.00195524 10 6.375 C11.21047363 9.55249327 11.50216396 11.62832772 11 15 C9.6875 17.375 9.6875 17.375 7 19 C1.38721012 19.96399441 -3.52959782 19.72110572 -8.5 16.8125 C-11.53998948 14.59024896 -13.67844661 12.61224593 -15 9 C-15 5.16733326 -14.43478807 3.52989796 -12 0.5625 C-7.71116223 -1.67126967 -4.59624951 -1.19303648 0 0 Z " fill="#07C2D9" transform="translate(218,145)"/>
<path d="M0 0 C3.42603065 1.26614176 4.8712844 1.97986061 6.875 5.0625 C7.96079912 10.69092811 6.87879839 15.40187545 4.07421875 20.33203125 C2.28634834 22.91192242 0.60283561 24.50373679 -2.125 26.0625 C-5.1875 26.5625 -5.1875 26.5625 -8.125 26.0625 C-10.42775556 24.1954009 -11.80323871 22.70602259 -13.125 20.0625 C-13.72612641 14.05123588 -12.44529019 9.97120062 -9.125 5.0625 C-6.45388082 1.88867018 -4.31560076 0.08631202 0 0 Z " fill="#1D05AE" transform="translate(289.125,117.9375)"/>
<path d="M0 0 C3.52522312 0.02527042 3.94658317 0.14026052 6.625 2.75 C9.86846248 8.19901696 9.80178169 13.09294591 9.1875 19.375 C7.92544781 22.57499014 6.33712054 24.80018973 3.1875 26.375 C0.375 26.75 0.375 26.75 -2.8125 26.375 C-5.91414769 23.82475635 -7.53816416 22.19800753 -8.8125 18.375 C-9.79641321 8.10036532 -9.79641321 8.10036532 -6.875 3.75 C-3.95636792 0.38915094 -3.95636792 0.38915094 0 0 Z " fill="#CB90D1" transform="translate(257.8125,104.625)"/>
<path d="M0 0 C4.19784361 0.85072578 6.69599115 3.2252819 9.3515625 6.4765625 C12.57545344 11.91687846 12.77000441 15.498843 11.3515625 21.4765625 C8.19760011 23.5792041 6.24472187 24.01892757 2.48046875 23.921875 C-2.66415339 22.8457522 -5.77715538 18.76943274 -8.5859375 14.6015625 C-9.97168001 10.52584924 -10.07119635 7.77461082 -9.6484375 3.4765625 C-6.953858 -0.17199857 -4.29090388 -0.15374574 0 0 Z " fill="#FFB6BA" transform="translate(229.6484375,116.5234375)"/>
<path d="M0 0 C1.65 0 3.3 0 5 0 C4.97679687 0.61488281 4.95359375 1.22976562 4.9296875 1.86328125 C4.91164062 2.67152344 4.89359375 3.47976562 4.875 4.3125 C4.85179687 5.11300781 4.82859375 5.91351563 4.8046875 6.73828125 C4.84182678 9.28388576 4.84182678 9.28388576 7 12 C7 14.97 7 17.94 7 21 C-1.58 21 -10.16 21 -19 21 C-19 19.02 -19 17.04 -19 15 C-17.89591797 14.85304687 -17.89591797 14.85304687 -16.76953125 14.703125 C-8.9865753 13.67325973 -8.9865753 13.67325973 -3 9 C-1.75435718 6.05621555 -0.81198822 3.08951616 0 0 Z " fill="#69D8E7" transform="translate(172,217)"/>
<path d="M0 0 C3.15259632 0.62551514 4.83100796 2.05854277 6.96875 4.390625 C7.29875 5.710625 7.62875 7.030625 7.96875 8.390625 C1.69875 8.390625 -4.57125 8.390625 -11.03125 8.390625 C-9.41296075 1.91746802 -6.90224235 -0.3605649 0 0 Z " fill="#FBFEFE" transform="translate(222.03125,254.609375)"/>
<path d="M0 0 C0.09796875 0.59167969 0.1959375 1.18335938 0.296875 1.79296875 C1.24706228 6.81421704 2.15518771 10.37489127 6 14 C8.61818456 15.33298974 8.61818456 15.33298974 11 16 C11 16.33 11 16.66 11 17 C1.58603118 17.89028777 1.58603118 17.89028777 -1.87890625 15.9453125 C-3.86208078 13.85478664 -4.93314309 11.80684134 -5.171875 8.92578125 C-4.92024967 5.83193339 -4.37247119 3.49662826 -2.5 1 C-1 0 -1 0 0 0 Z " fill="#70D8E7" transform="translate(301,215)"/>
<path d="M0 0 C3.375 -0.125 3.375 -0.125 7 0 C9 2 9 2 9.125 5.625 C9.08375 6.73875 9.0425 7.8525 9 9 C8.67 8.01 8.34 7.02 8 6 C5.36 6 2.72 6 0 6 C0 4.02 0 2.04 0 0 Z " fill="#F3F4FA" transform="translate(277,211)"/>
<path d="M0 0 C5.47826087 -0.36521739 5.47826087 -0.36521739 7.875 1.3125 C9 3 9 3 9 6 C6.03 6 3.06 6 0 6 C0 4.02 0 2.04 0 0 Z " fill="#F3F9FC" transform="translate(153,211)"/>
<path d="M0 0 C2.97 0 5.94 0 9 0 C8.34 1.65 7.68 3.3 7 5 C4.69 5 2.38 5 0 5 C0 3.35 0 1.7 0 0 Z " fill="#69D8E7" transform="translate(153,217)"/>
<path d="M0 0 C2.64 0 5.28 0 8 0 C7.67 1.65 7.34 3.3 7 5 C4.69 5 2.38 5 0 5 C0 3.35 0 1.7 0 0 Z " fill="#6DD5E6" transform="translate(277,217)"/>
<path d="M0 0 C0.33 0 0.66 0 1 0 C1 1.98 1 3.96 1 6 C-3.62 6 -8.24 6 -13 6 C-13 7.32 -13 8.64 -13 10 C-15.475 9.01 -15.475 9.01 -18 8 C-18 7.34 -18 6.68 -18 6 C-14.24600202 4.7960663 -10.66782588 4.90122383 -6.75 4.9375 C-4.85507812 4.95103516 -4.85507812 4.95103516 -2.921875 4.96484375 C-1.95765625 4.97644531 -0.9934375 4.98804688 0 5 C0 3.35 0 1.7 0 0 Z " fill="#B1C6E4" transform="translate(330,213)"/>
<path d="M0 0 C1.65 0 3.3 0 5 0 C5 1.65 5 3.3 5 5 C3.02 5 1.04 5 -1 5 C-0.67 3.35 -0.34 1.7 0 0 Z " fill="#FAF5FB" transform="translate(247,219)"/>
<path d="M0 0 C1.65 0 3.3 0 5 0 C5 1.65 5 3.3 5 5 C3.02 5 1.04 5 -1 5 C-0.67 3.35 -0.34 1.7 0 0 Z " fill="#FAF5FB" transform="translate(188,219)"/>
<path d="M0 0 C2.375 -0.1875 2.375 -0.1875 5 0 C5.66 0.99 6.32 1.98 7 3 C4.36 3 1.72 3 -1 3 C-0.67 2.01 -0.34 1.02 0 0 Z " fill="#FDFAFD" transform="translate(313,210)"/>
</svg>
